<?xml version="1.0" encoding="UTF-8"?>
<svg xmlns="http://www.w3.org/2000/svg" viewBox="0 0 512 512" width="512" height="512">
  <defs>
    <linearGradient id="bg" x1="0" y1="0" x2="1" y2="1">
      <stop offset="0" stop-color="#5B93F6"/>
      <stop offset="1" stop-color="#1E3A8A"/>
    </linearGradient>
    <linearGradient id="sky" x1="0" y1="0" x2="0" y2="1">
      <stop offset="0" stop-color="#BFE6FF"/>
      <stop offset="1" stop-color="#FFE9C2"/>
    </linearGradient>
    <clipPath id="card">
      <rect x="140" y="168" width="232" height="196" rx="26"/>
    </clipPath>
  </defs>

  <!-- background -->
  <rect x="0" y="0" width="512" height="512" rx="112" fill="url(#bg)"/>

  <!-- back photo (slideshow hint) -->
  <g transform="rotate(-11 256 262)" opacity="0.5">
    <rect x="150" y="170" width="212" height="188" rx="24" fill="#ffffff"/>
  </g>
  <g transform="rotate(6 256 262)" opacity="0.8">
    <rect x="146" y="170" width="220" height="192" rx="24" fill="#ffffff"/>
  </g>

  <!-- front photo -->
  <rect x="140" y="168" width="232" height="196" rx="26" fill="#ffffff"/>
  <g clip-path="url(#card)">
    <rect x="140" y="168" width="232" height="196" fill="url(#sky)"/>
    <circle cx="315" cy="222" r="25" fill="#FDB92E"/>
    <path d="M140 364 L214 288 L262 328 L372 300 L372 364 Z" fill="#78C6A0"/>
    <path d="M140 364 L196 314 L246 350 L306 296 L372 348 L372 364 Z" fill="#2E7D5B"/>
  </g>

  <!-- slideshow dots -->
  <g fill="#ffffff">
    <circle cx="232" cy="390" r="7"/>
    <circle cx="256" cy="390" r="7" opacity="0.55"/>
    <circle cx="280" cy="390" r="7" opacity="0.55"/>
  </g>
</svg>
